# xmcd CD database file
#
# Track frame offsets:
#	150
#	13435
#	26910
#	40835
#	54110
#	69050
#	81215
#	94330
#	107615
#	121395
#	138425
#	151700
#
# Disc length: 2160 seconds
#
# Revision: 0
# Processed by: cddbd v1.5.2PL0 Copyright (c) Steve Scherf et al.
# Submitted via: CDex 1.51
#
DISCID=93086e0c
DTITLE=MARTY ROBBINS - THIS MUCH A MAN
DYEAR=1972
DGENRE=Country
TTITLE0=This Much A Man
TTITLE1=Funny Face
TTITLE2=Franklin, Tennessee
TTITLE3=SHE'S TOO GOOD TO BE TRUE
TTITLE4=You Don't Really Know
TTITLE5=Leaving Is A Whole Lot Harder
TTITLE6=Overhurt And Underloved
TTITLE7=This Much A Man
TTITLE8=Eyes
TTITLE9=It's Not Love
TTITLE10=Making The Most Of  A Heartache
TTITLE11=Guess I'll Just Stand Here Looking Dumb
EXTD=YEAR: 1972
EXTT0=
EXTT1=
EXTT2=
EXTT3=
EXTT4=
EXTT5=
EXTT6=
EXTT7=
EXTT8=
EXTT9=
EXTT10=
EXTT11=
PLAYORDER=
